<svg id="Layer_1" data-name="Layer 1" xmlns="http://www.w3.org/2000/svg" viewBox="0 0 1080 384.69"><defs><style>.cls-1{fill:#0257fd;}.cls-2{fill:#101214;}</style></defs><path class="cls-1" d="M311.42,176.48l32.23-20.72a21.45,21.45,0,0,0,9.85-18.06V82.59A21.48,21.48,0,0,0,332,61.11H82.59A21.48,21.48,0,0,0,61.11,82.59V137.7A21.46,21.46,0,0,0,71,155.76l32.23,20.72a2.94,2.94,0,0,1,0,5L71,202.07a21.53,21.53,0,0,0-9.89,18.06v32.2A21.42,21.42,0,0,0,71,270.39l124.78,80.07a21.42,21.42,0,0,0,23.2,0l124.64-80.07a21.41,21.41,0,0,0,9.88-18.06v-32.2a21.52,21.52,0,0,0-9.88-18.06l-32.2-20.63A2.94,2.94,0,0,1,311.42,176.48Zm-13.52,5-87.33,56.07a5.94,5.94,0,0,1-6.38,0l-87.48-56.07a3,3,0,0,1,0-5l87.48-56.14a5.82,5.82,0,0,1,6.38,0l87.33,56.14A3,3,0,0,1,297.9,181.44Z"/><path class="cls-2" d="M596.8,185.27v25.36q0,26.57-11.21,45.57a75.89,75.89,0,0,1-30.87,29.3q-19.66,10.28-45,10.27-28.33,0-49.76-12.54t-33.38-35.68q-12-23.16-12-55,0-24.48,7.15-43.71a92.74,92.74,0,0,1,20-32.58,86.61,86.61,0,0,1,30-20.36,97.38,97.38,0,0,1,37.07-7,99.26,99.26,0,0,1,31.85,5,86.57,86.57,0,0,1,26.21,14,75.76,75.76,0,0,1,18.71,21.48,73.38,73.38,0,0,1,9.35,27.39H551.68A45.52,45.52,0,0,0,545.89,144a38.07,38.07,0,0,0-9.12-9.44,40.08,40.08,0,0,0-12.19-5.93,51.34,51.34,0,0,0-15.08-2.07q-15.45,0-27.09,7.67T464.28,156.5q-6.5,14.61-6.49,35.65t6.38,35.77c4.28,9.86,10.3,17.33,18.09,22.49s17,7.7,27.62,7.7c9.66,0,17.89-1.71,24.74-5.16a36.56,36.56,0,0,0,15.73-14.58,43.14,43.14,0,0,0,5.43-21H512.54V185.27Z"/><path class="cls-2" d="M628.76,293V91.66h42.58V257.92h86.32V293Z"/><path class="cls-2" d="M828.45,91.66V293H785.87V91.66Z"/><path class="cls-2" d="M863.55,293V91.66h80.62q22.22,0,37.06,6.59t22.32,18.24a48.56,48.56,0,0,1,7.47,26.79,43.63,43.63,0,0,1-4.71,20.7,40.45,40.45,0,0,1-12.93,14.55,53.15,53.15,0,0,1-18.74,8v2A45.36,45.36,0,0,1,996.22,195a46.15,46.15,0,0,1,16.38,16.76q6.28,10.77,6.29,25.61a52.43,52.43,0,0,1-7.91,28.57q-7.92,12.53-23.36,19.8t-38,7.28Zm42.57-117.1h31.56a37.45,37.45,0,0,0,15.58-3.09,26,26,0,0,0,10.82-8.8,23.33,23.33,0,0,0,4-13.67q0-10.92-7.72-17.6t-21.88-6.69H906.12Zm0,82.3h34.7q17.8,0,26-6.84t8.16-18.24a27.09,27.09,0,0,0-4-14.74,27.43,27.43,0,0,0-11.46-10,39.61,39.61,0,0,0-17.64-3.64H906.12Z"/></svg>
