<svg id="Layer_1" data-name="Layer 1" xmlns="http://www.w3.org/2000/svg" viewBox="0 0 1080 1080"><defs><style>.cls-1{fill:#0257fd;}</style></defs><path class="cls-1" d="M812.14,458.94l84.24-54.16a56.13,56.13,0,0,0,25.77-47.22v-144A56.17,56.17,0,0,0,866,157.37H214a56.17,56.17,0,0,0-56.16,56.16v144a56.13,56.13,0,0,0,25.77,47.22l84.24,54.16a7.67,7.67,0,0,1-.08,13l-84.09,53.92A56.32,56.32,0,0,0,157.85,573v84.17a56,56,0,0,0,25.84,47.21l326.18,209.3a56,56,0,0,0,60.64,0l325.8-209.3a56,56,0,0,0,25.84-47.21V573a56.32,56.32,0,0,0-25.84-47.22L812.14,471.9A7.68,7.68,0,0,1,812.14,458.94Zm-35.33,13L548.52,618.48a15.49,15.49,0,0,1-16.66,0L303.19,471.9a7.72,7.72,0,0,1,0-13L531.86,312.2a15.18,15.18,0,0,1,16.66,0L776.81,458.94A7.72,7.72,0,0,1,776.81,471.9Z"/></svg>
